<?xml version="1.0" encoding="utf-8"?>
<!-- Generator: Adobe Illustrator 25.0.1, SVG Export Plug-In . SVG Version: 6.00 Build 0)  -->
<svg version="1.1" id="Layer_1" xmlns="http://www.w3.org/2000/svg" xmlns:xlink="http://www.w3.org/1999/xlink" x="0px" y="0px"
	 viewBox="0 0 578.3 155.9" style="enable-background:new 0 0 578.3 155.9;" xml:space="preserve">
<style type="text/css">
	.st0{fill:#EEEADB;}
</style>
<path class="st0" d="M234.2,6.7l-28,142.5h36.2L270.2,6.7H234.2z M334.2,6.7l-6.3,83h-0.6l-6.1-83h-40.7l23.6,142.5h47L375,6.7
	H334.2z"/>
<path class="st0" d="M435.2,134.8c0.1-0.1,0.1-0.5-0.1-0.7c-0.1-0.2-0.4-0.2-0.7-0.2c-0.1,0-0.3,0-0.4,0.1c-0.8,0.9-1.7,1.6-2.8,2.1
	c-1,0.4-1.3,1.3-2,2v2.1c1.3-1,2.5-2,3.7-3.1C433.8,136.4,434.5,135.6,435.2,134.8z"/>
<path class="st0" d="M421.4,149.2L421.4,149.2C421.4,149.2,421.4,149.2,421.4,149.2L421.4,149.2z"/>
<path class="st0" d="M530.2,4.8h-30.1c-14.2,0-25.7,11.7-25.7,25.9v3.4c0.7-0.8,1.3-1.6,2-2.3c0,0,0,0,0,0c0,0,0,0,0,0c0,0,0,0,0,0
	c0,0,0,0,0,0l0.1-0.1c0,0,0,0,0,0l0,0.2c0,0-0.1-0.1-0.1-0.1c0,0,0,0,0,0c0.1,0.3,0.2,0.7,0.2,1c0,0.2-0.2,0.5-0.3,0.7
	c-0.9,1.3-1.4,2.7-1.1,4.4c0,0.2-0.2,0.4-0.3,0.6c-0.1,0.1-0.3-0.1-0.5-0.3v27.4c0,5.9,1.5,8.1,6.3,11.3l0.4,0.2c0.2,0,0.4,0,0.7,0
	c2.2,0.1,4.4,0.3,6.6,0.4c0.6,0,1.4,0.2,1.9,0c1.4-0.6,2.6-0.2,3.8,0.3c2.1,0.8,4.1,1.6,6.1,2.7c1.4,0.8,2.8,1.4,4.2,2.1
	c0.6,0.3,1.2,0.8,1.3,1.6c0.1,0,0.1,0,0.2,0.1c0,0-0.1,0.1-0.1,0.1c0-0.1,0-0.1-0.1-0.2c-0.5-0.2-1.1-0.5-1.6-0.7
	c-1.2-0.5-2.5-0.8-3.8-0.8c-1.8,0-3.7,0-5.5,0.1c-1.2,0.1-2.4,0-3.6-0.1l25.2,13.7c2.7,1.9,2.7,2.9,2.7,6.3v13.8
	c0,1.5-1,2.5-2.3,2.5h-3.3c-1.3,0-2.3-1-2.3-2.5V97.8h-36.8v27.4c0,14.2,11.5,25.9,25.7,25.9h30.1c14.2,0,25.9-11.7,25.9-25.9V90.3
	c0-6.1-1.7-8.4-6.3-11.5l-35.9-20.5c-2.7-1.6-2.7-2.9-2.7-5.9c-0.4-0.2-0.6-0.5-0.4-0.7c0.1-0.1,0.3-0.2,0.4-0.4V39.3
	c0-1.3,1-2.3,2.3-2.3h3.3c1.3,0,2.3,1,2.3,2.3v18.4h37v-27C556.1,16.5,544.4,4.8,530.2,4.8z M479.5,99.6l0-0.3l0.3,0.2L479.5,99.6z
	 M486.6,104.4l0-0.3l0.2,0.2L486.6,104.4z M510.8,82.1c-0.2,0.1-0.4,0.3-0.6,0.3s-0.4-0.2-0.6-0.3c0.2-0.1,0.4-0.3,0.6-0.3
	C510.4,81.8,510.6,82,510.8,82.1z M541.3,40.1c-0.3,0.2-0.5,0-0.5-0.3c0-0.1,0.1-0.3,0.2-0.3c0.2,0,0.5,0,0.7,0
	C541.5,39.8,541.4,40,541.3,40.1z M553.3,34.7c0.1,0,0.2,0.2,0.2,0.3c-0.2,0.1-0.4,0.2-0.7,0.2c-0.1,0-0.2-0.2-0.2-0.3
	C552.9,34.9,553.1,34.8,553.3,34.7z M551.5,46.1c0,0.1,0,0.1,0,0.2c0,0,0.1,0,0.1,0l-0.1,0.1l0.1-0.1c0,0,0,0.1,0,0.1
	c0.2,0,0.3,0.1,0.2,0.3c0,0-0.2,0-0.2-0.1c0-0.1,0-0.1,0-0.2c0,0-0.1,0-0.1,0l0,0c0,0,0,0,0,0h0l0,0c0,0,0-0.1,0-0.1
	c-0.2,0-0.3-0.1-0.2-0.2C551.3,46,551.5,46.1,551.5,46.1z"/>
<path class="st0" d="M495.3,81.2c0.1-0.1,0.2-0.2,0.2-0.3c0.1-0.3,0-0.5-0.2-0.6c-0.1-0.1-0.2-0.2-0.3-0.2c-2.7-0.5-5.4-1-8.2-0.7
	c-0.5,0-0.9,0.1-1.4,0l3.1,1.7c0.1-0.1,0.2-0.1,0.3-0.1c0.4,0,0.8-0.2,1.2-0.1c1,0.2,2,0.5,3.1,0.6
	C493.8,81.7,494.6,81.6,495.3,81.2z"/>
<path class="st0" d="M465.9,109.4c-0.3,0.4-0.6,0.8-0.8,1.3c-0.5,1-1.5,1.4-2.5,1.6c-0.3,0.1-0.6-0.3-1-0.5c0,0,0,0,0,0c0,0,0,0,0,0
	c0,0.7-0.3,1.1-1,1.2c0,0,0,0,0,0c0,0.1-0.1,0.1-0.1,0.2c-0.1,0.2-0.1,0.4-0.3,0.6c0,0.1-0.1,0.1-0.1,0.2c0,0-0.1-0.1-0.1-0.1
	c0.1,0,0.1-0.1,0.2-0.1c0.1-0.2,0.2-0.4,0.3-0.6c0-0.1,0-0.1,0-0.2l0,0c0.4-0.4,0.7-0.8,1-1.2c0,0,0,0,0,0c0,0,0,0,0,0c0,0,0,0,0,0
	c0,0,0,0,0,0c0,0,0,0,0,0c0,0,0,0,0,0c1.7-1.2,3-2.7,4-4.6c0.2-0.4,0.4-0.7,0.7-1.1c0-14.4-1.1-16.6-12.5-18.4v-0.8
	c3.3-0.5,5.7-1.1,7.5-2c0-0.1,0-0.2,0-0.3c0-0.2,0.4-0.4,0.6-0.4c0.1,0,0.2,0,0.3,0.1c3.7-2.4,4.1-6.8,4.1-17V32.4
	c0-14.2-11.7-25.7-25.9-25.7h-55.8v62.6c1,0,1.7,0.1,2.4,0.6c0.1,0.1,0.2,0.3,0.2,0.3c-0.1,0.2-0.3,0.5-0.4,0.5
	c-0.7,0-1.4-0.1-2.1-0.2v62.5c0.2-0.2,0.3-0.5,0.4-0.7c0.4-1.6,1.6-2.3,2.9-3c0.3-0.2,0.7-0.3,1.1-0.3c0.7-0.1,1.2-0.5,1.6-1
	c0.4-0.5,0.9-1,1.4-1.4c0.8-0.6,0.4-1.8,1.1-2.4c0.3-0.3,0.5-0.7,1-0.4c0.3,0.2,0.6,0.5,0.7,0.9c0.1,0.3,0,0.8-0.2,1.1
	c-0.2,0.3-0.5,0.6-0.9,0.8c-0.8,0.6-0.8,1.2-0.4,2c0.2,0.4-0.2,0.8-0.5,0.9c-0.1,0-0.3,0.1-0.4,0.1c-2.5-0.1-4.1,1.5-5.4,3.3
	c-0.8,1-1.5,2.1-2.4,2.9v2.4c0.3-0.4,0.7-0.9,0.9-1.4c0.2-0.4,0.7-0.7,1.1-1c1-0.6,1.9-1.3,2.6-2.3c1.2-1.9,3-2.3,5.1-2
	c0.2,0,0.3,0.3,0.4,0.5c-0.1,0.2-0.1,0.5-0.2,0.7c-0.2,0.3-0.5,0.7-0.8,0.8c-2.1,0.7-3.4,2.4-4.8,3.8c-0.6,0.6-1,1.2-1.8,1.3
	c-1.2,0.2-1.8,1-2.1,2c0,0.1-0.1,0.2-0.2,0.3c-0.1,0.1-0.1,0.1-0.2,0.2v8H410c0.7-0.7,1.5-1.2,2.4-1.6c0.5-0.2,0.9-0.5,1.3-0.8
	c0.7-0.4,1.2-0.2,1.8,0.2c0.2,0.1,0.4,0.3,0.6,0.5c-0.7,0.5-1.5,0.9-2.2,1.4c-0.1,0.1-0.1,0.2-0.2,0.3h4.3c0.5-0.8,1.1-1.4,2-1.9
	c0.4-0.3,0.8-0.6,1.2-0.8v-2c-0.4,0.2-0.8,0.5-1.2,0.6c-0.3,0.2-0.8,0.2-1.1,0.2c-0.2,0-0.5-0.2-0.6-0.4c-0.1-0.2,0-0.6,0.1-0.7
	c0.4-0.3,0.9-0.5,1.4-0.7c0.5-0.2,1-0.4,1.4-0.6v-30.1c-0.3,0.2-0.7,0.2-1,0.3c-1-0.8-2.1,0.2-3-0.2c-0.1,0-0.2-0.2-0.1-0.3
	s0.2-0.2,0.3-0.2c1.2-0.6,2.5-0.7,3.8-0.7c0,0,0.1,0,0.1,0V105c-0.5,0.1-1.1,0.2-1.7,0c0.2-0.3,0.3-0.7,0.5-0.9
	c0.5-0.3,0.9-0.7,1.1-1.1V74.9c0-1.5,1-2.5,2.3-2.5h3.3c1.3,0,2.3,1,2.3,2.5v17.8c0.3,0.2,0.6,0.4,0.9,0.6c0.1,0.2,0.2,0.5,0.1,0.7
	c-0.1,0.2-0.4,0.4-0.6,0.4c-0.2,0-0.3,0-0.5,0v8.3c0.4-0.4,0.8-1,1.3-1.4c0.4-0.3,0.9-0.6,1.3-0.7c0.1-0.1,0.4,0.2,0.6,0.3
	c0.1,0,0,0.3,0,0.3c-0.4,0.5-1.1,0.8-1,1.5c0.1,0.5,0.4,0.9,0.7,1.4c-0.8,1-1.7,2-2.8,2.6v3.6l0.1,0.1l-0.1,0v24.6
	c1.8-1.1,3.8-2.3,5.7-3.5c0.5-0.3,1-0.4,1.5-0.1c0.5,0.3,1,0.3,1.5,0.2c1.5-0.3,2.7-1,3.9-1.7c0.7-0.4,1.3-0.9,1.9-1.3
	c0.9-0.6,1.7-0.5,2.5,0c0,0,0,0,0,0c0,0,0-0.1,0-0.1c0-0.2,0-0.4,0.1-0.5c0-0.4-0.2-0.8-0.4-1.2c-0.3-0.4-0.8-0.5-1.3-0.8
	c0.3-0.2,0.6-0.6,0.9-0.7c0.5-0.2,1-0.2,1.5-0.3c2.2-0.2,2.3-0.3,2.5-2.5c0-0.4,0.1-0.8,0.2-1.1c0.3-1,1.5-1.4,2.4-0.7
	c0.3,0.2,0.5,0.6,1,0.4v0c0,0,0,0,0,0c0,0,0,0,0,0c0,0,0,0,0,0c0.2,0,0.5,0,0.7,0c0.2-0.1,0.4-0.3,0.5-0.5c0.6-1.5,1.9-2,3.3-2.4
	c0.6-0.2,1.2-0.2,1.8,0.1c0,0,0,0,0.1,0c0,0,0,0,0,0c0,0,0-0.1,0-0.1c0-0.4,0-0.7,0.4-0.9c0,0,0-0.1,0.1-0.1c0,0,0,0,0,0
	c0,0,0,0,0,0c0,0,0.1,0,0.1,0c0-0.4,0.2-0.6,0.6-0.7c0,0,0-0.1,0-0.1c0,0,0.1,0.1,0.1,0.1c0,0-0.1,0-0.1,0c0,0.4-0.3,0.6-0.6,0.7
	c0,0.1,0,0.1,0,0.2c0,0,0,0,0,0c0,0,0,0,0,0c-0.1,0-0.1,0-0.2,0c-0.1,0.3-0.3,0.6-0.4,0.9c0,0.1,0,0.1,0,0.2l0,0c0,0,0,0,0,0
	c0,0,0,0,0,0l0,0c0,0-0.1,0-0.1,0c-1.3,0.9-2.6,1.9-3.8,2.8c-0.8,0.6-1.6,0.5-2.4,0.1c0,0,0,0,0,0c0.1,0.4,0.2,0.7,0.3,1.2
	c-0.4,0.4-0.8,0.8-1.3,1.2c-2,1.4-3.7,3.1-5.8,4.3c0,0-0.1,0.1-0.1,0.1c0,0.2,0,0.3-0.1,0.5c0,0,0,0.1,0,0.1c0,0,0,0,0,0
	c0,0,0,0,0,0l0,0c0,0,0,0,0,0c0,0,0,0,0,0l0,0c0,0,0,0,0,0c-1.2,0.1-2,1.2-3.1,1.5c-1.1,0.3-1.7,1.2-2.5,1.8
	c-3.8,3-7.3,6.4-11.1,9.3c-0.1,0.1-0.2,0.2-0.4,0.3v7.5H445c-0.1,0-0.3-0.1-0.4-0.1c1.1-1,2.5-1.2,3.9-1.5c0.1,0,0.3,0.3,0.4,0.5
	c0,0.1-0.1,0.3-0.2,0.3c-1,0.3-2.1,0.6-3.2,0.8h16.2c0.8-0.2,1.6-0.4,2.4-0.7c0.3-0.1,0.5,0,0.5,0.3c0,0.1-0.1,0.3-0.2,0.3
	c-0.1,0-0.2,0.1-0.3,0.1h2.1V109C466.2,109.1,466.1,109.2,465.9,109.4z M462.7,103.8c0-0.2-0.1-0.5,0-0.6c0.1-0.2,0.4-0.3,0.6-0.3
	c0.3,0,0.3,0.5,0.1,0.9C463.1,104,462.9,104,462.7,103.8c0.2,0.7-0.2,1.1-0.7,1.4c-0.1,0-0.2,0-0.3,0c-0.1,0-0.1-0.2-0.1-0.3
	C461.8,104.4,461.8,103.7,462.7,103.8z M386.7,126.4l0-0.2l0.2,0.1L386.7,126.4z M389.5,72c-0.1,0.1-0.4,0.2-0.6,0.2
	c-0.1,0-0.2-0.2-0.2-0.3c0-0.3-0.1-0.6,0-0.8c0.1-0.2,0.4-0.4,0.6-0.3c0.2,0,0.3,0.3,0.4,0.5C389.6,71.6,389.6,71.9,389.5,72z
	 M412.1,77.9c0.2,0,0.5,0,0.7,0.1c0.4,0.2,0.6,0.7,0.4,0.8c-0.2,0.1-0.4,0.1-0.6,0c-0.2-0.1-0.4-0.2-0.6-0.4
	c-0.1-0.1-0.2-0.2-0.2-0.3S412,78,412.1,77.9z M398,130.2c-0.1,0-0.2-0.2-0.3-0.3c-0.1-0.4,0.2-0.8,0.7-0.8c0.1,0.2,0.4,0.3,0.4,0.5
	C398.8,130.1,398.3,130.4,398,130.2z M404.1,125.8c-0.8,0.4-1.7,0.6-2.5,1c-1.1,0.5-2,0.2-3-0.3c-0.3-0.2-0.7-0.4-0.8-0.7
	c-0.3-0.7-0.6-1.4-1.1-2c-0.5-0.7-0.1-1.5,0.8-1.8c1-0.3,1.4,0,1.8,0.9c0,0.1,0.1,0.3,0.1,0.4c0,0.6,0.5,1,1,1
	c1.2,0,2.3-0.1,3.5-0.1c0.2,0,0.5,0.1,0.7,0.3c0.1,0,0.1,0.2,0.1,0.5C404.5,125.2,404.4,125.7,404.1,125.8z M407.9,147.5
	c0-0.1-0.1-0.2-0.1-0.3c0,0,0.2-0.1,0.2-0.1c0,0.1,0.1,0.2,0.1,0.3C408,147.5,408,147.5,407.9,147.5z M409.5,128.8
	c-0.2,0.1-0.5,0.1-0.8,0.1c-0.1,0-0.3-0.1-0.3-0.2c-0.1-0.2,0-0.4,0.4-0.4c0.4,0,0.8-0.1,1,0.3C409.8,128.6,409.6,128.8,409.5,128.8
	z M411.1,124.7l-0.2-0.1l0.2-0.1L411.1,124.7z M413.7,118.1c-2,1.5-4.1,2.7-6.8,2.4c-0.6-0.1-1,0.3-1.3,0.7
	c-0.7,0.9-1.6,1.3-2.7,1.2c-0.8-0.1-1.5,0.2-2.3,0.2c-0.1,0-0.4-0.3-0.4-0.5c0.1-0.9,0.5-1.7,1.2-2.4c1-0.1,2.1-0.2,3.1-0.3
	c0.9-0.1,1.6-1,1.7-1.9c0-0.4,0-0.8-0.1-1.2c-0.3-1,0-1.7,0.9-2.3c0.8-0.5,0.5-1.4,0.7-2.1c0.2-0.9,0.7-1.2,1.7-1.1
	c0.5,0.1,1.1,0.1,1.5,0.3c0.3,0.1,0.5,0.6,0.6,0.9c0,0.1-0.2,0.5-0.4,0.6c-0.4,0.3-0.9,0.5-1.4,0.6c-0.5,0.2-0.8,0.6-1.1,1.1
	c-0.5,1-0.3,1.8,0.6,2.3c0.8,0.5,1.7,0.8,2.6,0.8c0.6,0,1.3-0.1,1.9-0.1C413.8,117.7,413.9,118,413.7,118.1z M417.4,141.8l0.2,0.1
	l-0.2,0.1L417.4,141.8z M415,93.3l-0.1-0.3l0.3,0L415,93.3z M419.9,107.7c0.2,0.2,0.1,0.9-0.2,1c-1.1,0.4-2.1,0.9-3.1,1.3
	c-0.2-0.1-0.3-0.2-0.3-0.3c-0.2-1.1-0.4-2.2-0.5-3.3c-0.1-0.6,0.3-0.9,0.7-1.3c0.3-0.2,0.9-0.2,1,0c0.3,1,0.9,1.8,2,2
	C419.6,107.2,419.8,107.5,419.9,107.7z M417.4,89.8c0.3,0,0.6,0.1,1,0.2c-0.2,0.3-0.3,0.6-0.5,0.7c-0.4,0.3-0.7,0.2-0.8-0.3
	C417,90,417.1,89.8,417.4,89.8z M419.9,83c-0.2,0.3-0.6,0.5-0.9,0.8c-0.4,0.3-0.7,0.8-0.7,1.3c0.1,0.9,0.2,1.8,0.3,2.6
	c-0.8,0.7-1.5,1.1-2.5,0.8c-0.5-0.1-0.9-0.7-0.8-1.1c0-0.1,0.1-0.2,0.2-0.3c1.2-2.1,1.5-4.3,0.2-6.5c0.4,0.1,0.8,0,0.8,0.1
	c0.5,1.1,1.3,1.5,2.5,1.4c0.2,0,0.5,0.1,0.7,0.3C419.9,82.5,420,82.9,419.9,83z M429,59.8c0,1.1-0.9,1.9-2,1.9h-3
	c-1.1,0-2-0.9-2-1.9V39c0-1.1,0.9-1.9,2-1.9h3c1.1,0,2,0.9,2,1.9V59.8z M432.4,98.6c-0.2-0.1-0.5-0.1-0.7-0.2
	c-0.1-0.1-0.1-0.5,0-0.6c0.2-0.1,0.5-0.2,0.7-0.1c0.2,0.1,0.2,0.4,0.2,0.6C432.7,98.3,432.5,98.4,432.4,98.6z M434.6,109.7l0.1-0.2
	l0.1,0.2L434.6,109.7z M442.6,127.8c-0.7,0.8-1.5,1.3-2.6,1.2c-0.2,0-0.4-0.2-0.6-0.4c0,0,0-0.3,0.1-0.3c0.7-0.5,1.4-1,2.1-1.5
	c0.2-0.1,0.5-0.1,0.7,0c0.2,0.1,0.2,0.4,0.3,0.6C442.7,127.6,442.7,127.7,442.6,127.8z M459.2,107.2c0.1,0,0.2,0,0.3,0.1
	c0,0.1,0,0.2-0.1,0.2c-0.1,0-0.2,0-0.3,0C459.1,107.4,459.1,107.2,459.2,107.2z M459.5,114.7c0,0,0,0.1,0,0.1L459.5,114.7l0,0.1
	c-0.1,0-0.1,0-0.2,0c-0.4,0.8-0.9,1.4-1.7,1.7c-0.3,0.1-0.7,0-1.1,0c-0.1,0-0.2-0.2-0.2-0.3c0-0.1,0-0.3,0-0.4c0.9-0.6,2-0.9,3-1.1
	c0,0,0.1-0.1,0.1-0.1l0,0c0,0,0,0,0,0C459.5,114.7,459.5,114.7,459.5,114.7c0-0.4,0.2-0.6,0.5-0.7c0,0,0-0.1,0-0.1
	c0,0,0.1,0.1,0.1,0.1c0,0-0.1,0-0.1,0C460.2,114.5,460.1,114.6,459.5,114.7z M445.2,145.5c-0.5,1.2-1.1,1.6-2.3,1.4c0,0,0,0,0,0.1
	l-0.1,0c0,0,0.1,0,0.1,0c0,0,0,0.1-0.1,0.1c0,0.1,0,0.2,0.1,0.3c0,0-0.1-0.1-0.1-0.1c0-0.1,0-0.1,0.1-0.1c0-0.1,0-0.1-0.1-0.2l0,0
	c0,0,0,0,0,0c0,0,0,0,0,0l0,0c0.1,0,0.1,0,0.1,0C443.4,146,444.1,145.4,445.2,145.5C445.2,145.4,445.2,145.4,445.2,145.5l0.1,0
	C445.2,145.5,445.2,145.5,445.2,145.5z M446.3,145.4c-0.3,0-0.7,0-1,0c0,0,0,0.1,0,0.1c0,0-0.1-0.1-0.1-0.1c0,0,0.1,0,0.1,0
	c0.1-0.4,0.4-0.6,0.8-0.6c0.2,0,0.4,0.1,0.7,0.2C446.6,145.1,446.5,145.4,446.3,145.4z M461.8,115.6c0,0.5-0.2,0.7-0.6,0.7
	c0,0,0,0.1,0,0.1c0,0-0.1-0.1-0.1-0.1c0,0,0.1,0,0.1,0C461.2,115.9,461.4,115.7,461.8,115.6c0,0,0-0.1,0-0.1L461.8,115.6
	C461.8,115.6,461.8,115.6,461.8,115.6z M461.9,115.5C461.9,115.5,461.9,115.6,461.9,115.5c0,0.1-0.1,0-0.1,0
	C461.8,115.5,461.9,115.5,461.9,115.5c0.1-0.1,0.2-0.3,0.3-0.4C462.5,115.6,462.2,115.6,461.9,115.5z"/>
<g>
	<path class="st0" d="M180.2,8.7C180.2,8.7,180.1,8.7,180.2,8.7c-1.5,1-3.1,1.3-4.7,1.7c-2.1,0.5-4.2,1.3-6.2,2.2
		c-2.7,1.3-5.6,2-8.5,2.9c-1,0.3-2,0.6-3,0.8c-0.9,0.2-1.7,0.5-2.5,1c-1.5,1-3.3,1.6-5.1,1.9c-2.1,0.3-4,1.2-6,1.6
		c-1.5,0.3-2.8,1.4-4.5,1.2c-1,0.5-2.2,0.6-3,1.7c-0.4,0.5-1.1,0.7-1.7,0.9c-0.5,0.2-1,0.3-1.5,0.5c-1.6,0.7-2.7,2.1-4.4,2.5
		c-1.5,0.4-2.8,1.3-4.2,2.1c-1.3,0.7-2.4,1.6-3.1,2.9c-0.4,0.7-1,1.2-1.5,1.8c-0.2,0.2-0.4,0.4-0.5,0.6c-1,2.5-1.9,5.1-2.9,7.7
		c-0.2,0.6,0.3,1.3,1,1.4c0.3,0.1,0.5,0.1,0.8,0.1c0.7,0,1.2,0.3,1.7,0.9c0.6,0.8,1.4,1.6,2,2.4c0,0,0,0,0,0c0,0,0,0,0,0
		c1-0.7,2.1-1,3.2-0.2c1.2,0.9,2.8,0.6,3.9,1.5c1.4,0.1,2.9,0.4,4.3,0.3c1.5-0.2,2.8,0.3,4.2,0.4c1.7,0.1,3.3,0.7,5,1.1
		c1.8,0.4,3.4,1.3,4.8,2.5c0.6,0.6,1.4,0.8,2.2,0.5c0.6-0.2,1.2-0.3,1.8-0.3V39c0-1.1,0.9-1.9,2-1.9h3c1.1,0,2,0.9,2,1.9v14.6
		c0.2,0,0.3,0,0.5,0c1.2,0.1,2.3,0.4,3.5,0.6c1.7,0.3,3.2,0.9,4.9,1.4c0.6,0.2,1.2,0.4,1.9,0.5c1.1,0.1,2,0.4,3,0.7
		c0.7,0.3,1.5,0.5,2.3,0.5c1.6-0.1,3,0.7,4.6,0.9c1.4,0.3,2.7,0.8,4,1.5c0.3,0.2,0.7,0.3,1.1,0.4c1.4,0.2,2.8,0.5,4.1,1.2
		c0.3,0.2,0.8,0.2,1.1,0.2c2.2,0.2,4.2,0.9,6.3,1.4V32.4C196.1,21.7,189.5,12.6,180.2,8.7z"/>
	<path class="st0" d="M130.2,20.4c-0.1,0.1-0.2,0.2-0.2,0.2c0,0.1,0.1,0.2,0.1,0.3C130.4,20.9,130.5,20.7,130.2,20.4z"/>
	<path class="st0" d="M128.8,22.8c0.1-0.5,0.1-1,0.1-1.4c0-0.3-0.2-0.4-0.5-0.4c-0.1,0-0.2,0.1-0.3,0.2c-0.5,0.6-0.4,1,0.1,1.7
		c0.1,0.1,0.2,0.1,0.3,0.2C128.7,22.9,128.8,22.9,128.8,22.8z"/>
	<path class="st0" d="M121.6,47.4c0.3,0,0.5,0.4,0.8,0C122.1,47.1,121.8,47.5,121.6,47.4z"/>
	<path class="st0" d="M196.1,129.4v-2.1c-0.2,0.3-0.4,0.8-0.3,1.3C195.7,128.9,195.9,129.2,196.1,129.4z"/>
	<path class="st0" d="M39.1,98.6c0.5-0.3,0.5-1.3,0-1.6c-0.1-0.1-0.5,0.1-0.6,0.2c-0.1,0.5-0.2,1,0.3,1.4
		C38.9,98.6,39,98.6,39.1,98.6z"/>
	<path class="st0" d="M103.1,33.4c-0.2,0.6-0.3,1.3,0,1.9c0.1,0.1,0.2,0.3,0.3,0.3c0.2,0,0.6,0,0.7-0.2c0.3-0.6,0.5-1.2,0.7-1.8
		c-0.3-0.3-0.5-0.7-0.8-0.8C103.7,32.6,103.2,33,103.1,33.4z"/>
	<path class="st0" d="M99.2,36.4c-0.3,0-0.5,0.1-0.9,0.2c-0.2,0-0.6-0.1-1-0.1c-1,0-2,0.8-2.2,1.8c-0.1,0.8-0.1,1.5,0.2,2.3
		c0.6,1.2,1.4,1.9,2.7,1.7c0.6-0.1,1.3-0.1,1.9-0.2c0.2,0,0.5-0.3,0.5-0.5c0.4-1.5,0.5-3.1-0.4-4.5C99.8,36.7,99.6,36.4,99.2,36.4z"
		/>
	<path class="st0" d="M115.1,22.2c1.1-0.5,2.2-0.8,3.3-1.2c1.6-0.4,3.3-0.7,4.6-2c0.5-0.4,1.1-0.7,1.7-0.9c2.1-0.5,4.1-1.7,6.4-1.7
		c0.6,0,1.3-0.3,1.9-0.5c2-0.9,4.1-1.8,6.1-2.6c1.2-0.5,2.4-1.1,3.6-1.5c1.9-0.6,3.7-1.2,5.7-0.9c1,0.1,2.1-0.1,3.1-0.2
		c0,0,0-0.1-0.1-0.1l0,0c0,0,0,0,0,0c0.1,0,0.1,0,0.1,0c0.4-0.4,0.7-0.9,1.1-1.3c0.1-0.1,0.2-0.1,0.3,0c0.1,0.1,0.2,0.2,0.2,0.3
		c-0.1,1.1-0.4,1.3-1.6,1c0,0,0,0-0.1,0.1l0,0c0,0,0,0,0,0c0.6,1,1.3,2.1,1.9,3.1c1.4,0.3,2.7,0.1,4.1-0.4c1.4-0.5,2.9-0.8,4.5-0.9
		c1.9-0.1,3.3-1.2,3.9-3.2l-0.1,0.1c0-0.1,0-0.1,0-0.2c-0.2-0.2-0.3-0.4,0-0.7c0,0,0-0.1,0-0.1l0,0c0,0,0,0,0,0l0.1,0.1
		c-0.4-0.3-0.8-0.7-1.2-1c-1.9,0-3.4,1-5,1.8c-0.9,0.5-3,0.9-4,0.8c-0.2,0-0.5-0.2-0.7-0.3c-0.2-0.1-0.4-0.9-0.2-1.1
		c0.3-0.3,0.5-0.7,0.8-0.8c1.1-0.3,2.1-0.8,3.2-1.3h-44.6v15.8C114.6,22.4,114.9,22.3,115.1,22.2z"/>
	<path class="st0" d="M187.8,129.8c-0.5,0.5-1.2,1-1.7,1.5c-0.7,0.8-1.1,1.7-0.8,2.8c0.2,0.7,0.4,1.4,0.6,2.1c0.5-1.7,1.3-3,2.3-4.3
		c0.8-1.1,0.7-2.3,0.1-3.5C188.3,128.9,188.2,129.4,187.8,129.8z"/>
	<path class="st0" d="M172.9,143.1c0,0,0.1,0,0.1,0c0,0,0,0,0,0c0,0-0.1-0.1-0.1-0.1C173,143.1,172.9,143.1,172.9,143.1z"/>
	<path class="st0" d="M169.9,144.4c0,0.4,0,0.8,0,1.2c0,0.2,0.2,0.5,0.4,0.6c0.4,0.1,0.8,0.1,1.1-0.1c1-0.7,1.4-1.8,1.5-2.9
		c-0.6,0-1.2-0.1-1.8-0.1C170.5,143.1,169.9,143.7,169.9,144.4z"/>
	<path class="st0" d="M116.9,35.5c1-0.9,1.4-2.4,0.8-3.5c-0.1-0.1-0.5-0.2-0.6-0.1c-0.3,0.2-0.7,0.4-0.8,0.7c-0.2,0.5-0.2,1-0.3,1.7
		c0.1,0.2,0.1,0.6,0.3,0.9C116.4,35.5,116.8,35.6,116.9,35.5z"/>
	<path class="st0" d="M174.3,146.1c-1.8,0.9-3.5,2-5.2,3.1h26.9v-16.4c-1,0.6-2,1.3-3,2.1c-1.4,1.2-3.1,1.9-4.8,2.7
		c-1.2,0.6-2.2,1.3-3.3,2.1c-2.2,1.7-4.6,3-7,4.2c-0.5,0.3-1.1,0-1.2-0.6c0-0.5,0-1,0-1.6c0-0.4-0.2-0.8-0.3-1.1
		c-0.2-0.5-0.9-0.7-1.3-0.3c-0.3,0.4-0.7,0.8-1,1.2c-0.4,0.5-0.8,1-1.2,1.5c0.6,0.4,1.2,0.8,1.9,1.1c0.5,0.3,0.4,0.9,0,1.3
		C174.7,145.7,174.6,146,174.3,146.1z"/>
	<path class="st0" d="M114.4,149.2h35.5c0.4-0.1,0.8-0.3,1.2-0.5V74.9c0-1.5,1-2.5,2.3-2.5h3.3c1.3,0,2.3,1,2.3,2.5V145
		c0.5,0.2,0.8,0.5,1.1,1.1c0.3,0.7,0.8,0.8,1.2,0.6c0.9-0.4,1.1-0.7,1.1-1.6c0,0-0.1,0-0.1,0l0.1-0.1c0,0,0,0.1,0,0.1
		c0.6,0.1,1.2,0.3,1.8,0.4c0.4,0,0.8,0,1.1-0.2c0.6-0.3,1.1-0.7,1.6-1.1c0.6-0.4,0.9-1,0.9-1.7c0-0.8-0.1-1.6,0-2.3
		c0.1-0.5,0.3-1,0.6-1.4c0.3-0.5,0.9-0.5,1.4-0.4c0.4,0.1,0.9,0.1,1.1-0.2c1.1-1.4,3-2.1,3.7-3.9c0.1-0.3,0.6-0.5,1-0.5
		c0.6-0.1,1.3,0,1.8,0c0.9,1,1.4,2,1.8,3.1c0.2,0.4,0.6,0.8,1,1.2c0.3,0.3,0.7,0.3,1.1,0.1c1-0.5,1.6-1.3,1.2-2.1
		c-0.5-1.1-0.3-2.3-0.6-3.4c-0.2-0.8,0.2-1.6,0.8-2.1c1.1-0.9,2.3-1.6,3.6-2.3c0.5-0.3,1.2-0.1,1.9-0.1c0,0,0,0,0,0
		c0.8,0.1,1.6,0.1,2-0.7c0.4-0.7,0.9-0.8,1.6-0.4c0.6,0.4,1.3,0.3,1.8-0.2c0.8-0.8,1.8-1.5,2.2-2.7c0.1-0.2,0.2-0.4,0.3-0.4v-16.7
		c0-15.3-0.8-17.6-12.5-19.4v-0.8c11-1.8,12.4-3.9,12.5-16.8c-0.6-0.4-1.4-0.7-2.1-0.9c-0.9-0.2-1.8-0.4-2.7-0.5
		c-1.8-0.2-3.6-0.5-5.2-1.4c-0.4-0.3-1-0.4-1.5-0.4c-1.3,0.2-2.3-0.3-3.3-0.9c-1-0.6-2.1-1-3.2-1.6c-0.6-0.3-1.2-0.6-1.8-0.6
		c-0.8-0.1-1.5-0.5-2.2-0.7c-1.1-0.4-2.2-0.9-3.4-0.9c-0.6,0-1.3-0.3-1.9-0.5c-2.3-0.8-4.9-1-7-2.5c-1-0.2-2-0.5-3-0.7v1.3
		c0,1.1-0.9,1.9-2,1.9h-3c-1.1,0-2-0.9-2-1.9v-2.5c-0.4,0-0.8-0.1-1.2-0.3c-0.6-0.5-1-1.2-1.5-1.8c-0.8,0.1-1.6,0.3-2.4,0.2
		c-0.6,0-1.3-0.3-1.9-0.5c-2-0.4-4.1-0.9-6.1-1.3c-0.5-0.1-1.1,0.2-1.5,0.1c-1.5-0.4-3.1-0.3-4.5-1.3c-1-0.7-2.2-0.8-3.4-0.7
		c-1.4,0.1-2.7-0.1-3.8-0.8c-1.4-0.9-3.1-0.5-4.5-1.4c-0.3-0.2-0.8-0.1-1.2-0.1c-1.2,0-2.4-0.1-3.5-0.1c-0.7,0-1.3-0.1-1.9-0.2
		V149.2z M161,142.6c0.9-1.2,2.1-1.9,3.7-1.6c0.2,0,0.4,0.3,0.5,0.5c0.1,0.2,0,0.6-0.1,0.7c-0.9,0.9-1.8,1.7-2.6,2.7c0,0,0,0,0,0
		c0,0-0.1,0.1-0.1,0.1c0,0,0-0.1,0.1-0.1c-0.4-0.2-0.9-0.5-1.3-0.7C160.5,143.8,160.5,143.2,161,142.6z"/>
	<path class="st0" d="M190.1,133.1c0.3-0.5,0.5-0.9,0.8-1.3c0,0-0.1-0.2-0.2-0.2c-0.7-0.2-1.1,0.4-0.9,1.2
		C189.8,132.8,189.9,132.9,190.1,133.1z"/>
	<path class="st0" d="M106,32.6C106,32.6,106,32.6,106,32.6C106,32.6,106,32.6,106,32.6c-0.4,0.7-0.3,1.3,0,1.9V32.6z"/>
	<path class="st0" d="M188.2,128.3C188.2,128.3,188.2,128.3,188.2,128.3c0,0,0,0.1,0,0.1C188.2,128.4,188.2,128.4,188.2,128.3z"/>
	<path class="st0" d="M105.4,47.5c-1.2,0.4-2.3,0.2-3.5,0c-1.7-0.3-3.4-0.5-5-0.8c-1.5-0.3-3.1-0.5-4.4-1.5
		c-0.7-0.5-1.5-0.4-2.3-0.5c-1.8-0.3-1.9-0.4-1.6-2.2c0-0.1,0.1-0.3,0.1-0.4c0-0.3,0-0.5-0.1-0.8c-0.2-0.8-0.7-1.4-1.5-1.6
		c-0.8-0.2-1.6-0.1-2,0.7c-0.3,0.7-0.8,0.9-1.5,1c-1.6,0.2-2.8-0.4-3.7-1.7c-0.4-0.5-0.6-1.2-0.9-1.7c-0.6-1-0.2-1.7,0.6-2.4
		c0.6-0.5,1.6-0.5,2.2,0c0.6,0.6,1.3,1.3,1.9,2c0.4,0.5,0.8,1,1.6,1c1.1-0.1,2-0.6,2.5-1.7c0.2-0.4,0.3-0.7,0.4-1.1
		c0.6-4.3,1.5-3.9,4.5-5.1c2-0.9,4.2-1.4,6.2-2.4c2.2-0.3,4.2-1.5,6.4-1.9c0.1,0,0.2-0.1,0.3-0.1C102.5,15.1,92.4,6.7,80.3,6.7H24.5
		v72.1c0,0,0,0,0,0c0.3-0.2,0.7-0.3,1-0.4c0.5,0.6,0.3,1.3,0.4,1.9c0.2,1.2,0.7,1.9,2,2.1c0.9,0.1,1.8,0.3,2.5,0.9
		c0.6,0.5,1.3,0.8,2,1.1c0.8,0.3,1.3,0.8,1.7,1.5c0.4,0.7,1,1.3,1.7,1.5c1.8,0.5,2.8,1.8,3.8,3.2c0.4,0.5,0.7,1.1,1,1.7
		c0.2,0.3,0.4,0.8,0.7,0.9c1.5,0.5,1.8,1.8,2.2,3c0.5,1.2,0.4,2.3-0.5,3.3c-0.5,0.5-0.7,1.1-0.7,1.8c-0.1,0.8-0.1,1.6-0.2,2.3
		c-0.2,0.8-0.6,1.5-1.5,1.6c-1.3,0.2-2.3,1.3-3.7,1c-0.6,0.3-1.2,0.6-1.7,1c-0.5,0.4-0.8,1-1.3,1.5c-0.5,0.6-1,1.2-1.8,1.4
		c-0.9,0.3-1.5,1-2.1,1.7c-0.3,0.4-0.9,0.4-1.4,0c-0.4-0.3-0.8-0.7-1.2-1c-0.3-0.2-0.9,0.1-0.9,0.4c-0.2,1.4-0.2,2.8-0.7,4.2
		c-0.3,0.8,0.1,1.5,0.5,2.2c0.4,1,0.2,1.6-0.7,1.8c-0.5,0.1-0.9,0.3-1.3,0.5v20.8c0.2-0.1,0.3-0.1,0.5-0.2c0,0,0-0.1,0-0.1l0.1,0.1
		c0,0,0,0,0,0c0.3,0.7,0.1,1.5-0.1,2.2c-0.3,1.8,0.4,3,1.9,3.9c1-0.6,1.7-1.5,3-1.6c0.4,0,0.9-0.5,1.2-0.9c1.6-1.7,3.7-2.8,5.6-4.2
		c0.2-0.1,0.5-0.1,0.8-0.1c0.1,0,0.2,0.1,0.4,0.1c0.3,0.1,0.3,0.3,0,0.6c-0.5,0.6-0.6,1.4-1.3,1.9c-0.7,0.5-1.4,1.2-2,1.9
		c-0.2,0.2-0.1,0.7-0.1,1.1c0,0.3,0.5,0.6,0.9,0.5c0.8-0.2,1.5-0.6,2.3-0.4c0.1,0,0.4,0.1,0.4,0.1c0,0.2,0,0.5-0.1,0.6
		c-0.6,0.5-1.3,0.9-1.8,1.5c-0.4,0.5-0.9,0.9-1.4,1.3h45.5c14.2,0,25.7-11.7,25.7-25.9V47.4C105.8,47.4,105.6,47.4,105.4,47.5z
		 M29.2,141.5c-1.3-0.5-2.7-0.6-4-0.9c0,0,0,0,0,0.1c0,0-0.1-0.1-0.1-0.1c0,0,0.1,0,0.1,0c0-0.1,0.1-0.2,0.2-0.3
		c1.1-0.7,2.3-1.1,3.6-1.3c0.8-0.1,1.4,0.6,1.3,1.5C30.2,141.1,29.5,141.7,29.2,141.5z M35.9,111.6c-0.2,0.3-0.5,0.5-0.8,0.7
		c-0.2-0.1-0.3-0.2-0.3-0.3c0.1-0.4,0.1-0.7,0.3-1c0.1-0.2,0.4-0.3,0.6-0.3C35.9,110.6,36.1,111.3,35.9,111.6z M46.5,139.9
		c-0.2,0.5-0.4,0.9-0.7,1.3c0,0.1-0.2,0.1-0.4,0.1c-0.2-0.1-0.4-0.3-0.5-0.4c-0.2-0.5,0-1,0.3-1.4c0.2-0.3,0.8-0.4,1-0.2
		C46.4,139.4,46.6,139.7,46.5,139.9z M69.4,116.7c0,1.1-0.9,1.9-2,1.9h-3c-1.1,0-2-0.9-2-1.9V38.8c0-1.1,0.9-1.9,2-1.9h3
		c1.1,0,2,0.9,2,1.9V116.7z"/>
</g>
</svg>
